<svg width="110" height="16" viewBox="0 0 110 16" fill="none" xmlns="http://www.w3.org/2000/svg">
<g id="Group 1114">
<path id="Vector" d="M3.76031 1.76911L8.90917 16H15.9209V0H12.1951V14.1962L7.04626 0H0V16H3.72581L3.76031 1.76911Z" fill="white"/>
<path id="Vector_2" d="M52.3466 0L48.8743 14.1962L45.4021 0H38.3555V16H42.032V1.76911L45.5042 16H52.1934L55.6657 1.76911V16H59.3422V0H52.3551H52.3466Z" fill="white"/>
<path id="Vector_3" d="M27.1358 7.9351L22.459 0H18.0898L25.237 12.2012V16H29.0347V12.2012L36.1818 0H31.8127L27.1358 7.9351Z" fill="white"/>
<path id="Vector_4" d="M67.9324 16L61.5156 0H65.3726L69.5237 11.1888L73.6747 0H77.4366L71.0198 16H67.9324Z" fill="#FB6E4E"/>
<path id="Vector_5" d="M80.3371 16V0H87.0562C89.0003 0 90.5323 0.505447 91.6611 1.51634C92.7899 2.52723 93.3543 3.86928 93.3543 5.52505V5.56863C93.3543 7.36384 92.7272 8.75817 91.473 9.72549C90.2187 10.7015 88.633 11.1895 86.6979 11.1895H83.9475V15.9913H80.3281L80.3371 16ZM83.9565 8.06972H86.8233C87.7013 8.06972 88.4001 7.84314 88.9107 7.38126C89.4303 6.92811 89.6901 6.34423 89.6901 5.64706V5.60349C89.6901 4.82789 89.4303 4.22658 88.9107 3.80828C88.3911 3.38998 87.6744 3.18083 86.7516 3.18083H83.9565V8.06972Z" fill="#FB6E4E"/>
<path id="Vector_6" d="M95.5362 16V0H98.8353L106.462 9.85621V0H110.001V16H106.95L99.0659 5.83007V16H95.5273H95.5362Z" fill="#FB6E4E"/>
</g>
</svg>
