<svg width="90" height="24" viewBox="0 0 90 24" fill="none" xmlns="http://www.w3.org/2000/svg">
<path d="M0.714294 2.23999C0.714294 1.00288 1.72009 0 2.96079 0H11.1399C12.5935 0 13.8655 0.974115 14.2406 2.37439L19.4649 21.8815C19.5617 22.2432 20.0959 22.1733 20.0959 21.799V0H26.5144V21.7599C26.5144 22.997 25.5086 23.9999 24.2679 23.9999H16.0283C14.5786 23.9999 13.3089 23.0308 12.9303 21.6355L7.76357 2.5892C7.66571 2.22844 7.13285 2.29902 7.13285 2.67275V23.9999H0.714294V2.23999Z" fill="#242B2D"/>
<path d="M56.2302 2.45228e-05C54.9895 2.52007e-05 53.9837 1.0029 53.9837 2.24002V23.9999H60.4022V2.68233C60.4022 2.29548 60.9626 2.24066 61.038 2.62013L64.7744 21.4219C65.0722 22.9203 66.3905 23.9999 67.9225 23.9999L75.4085 23.9999C76.9437 23.9999 78.2639 22.9158 78.5582 21.4135L82.2314 2.66662C82.3059 2.28643 82.8673 2.34061 82.8673 2.72798V23.9999H89.2857V2.24002C89.2857 1.0029 88.2799 2.5199e-05 87.0392 2.45188e-05L79.0956 2.01644e-05C77.5733 1.93299e-05 76.2604 1.06646 75.9526 2.55306L71.9504 21.8844C71.8798 22.2251 71.3916 22.2246 71.3216 21.8838L67.3548 2.55837C67.0492 1.06926 65.7351 1.93293e-05 64.2107 2.01623e-05L56.2302 2.45228e-05Z" fill="#242B2D"/>
<path d="M27.2712 9.04583e-05H34.0674L39.9396 12.5169C40.1706 13.0093 40.8732 13.0085 41.103 12.5155L46.938 9.04583e-05H53.8601L42.6092 24H35.7001L40.1856 14.4H36.0706C34.825 14.4 33.6918 13.6813 33.1639 12.5563L27.2712 9.04583e-05Z" fill="#242B2D"/>
</svg>
