<svg width="24" height="24" viewBox="0 0 24 24" fill="none" xmlns="http://www.w3.org/2000/svg">
<g clip-path="url(#clip0_14510_18858)">
<path d="M20.3802 8.5711L19.1502 10.4211C19.7433 11.6042 20.0337 12.9159 19.9954 14.2388C19.957 15.5617 19.591 16.8544 18.9302 18.0011H5.07017C4.21134 16.5112 3.85547 14.7842 4.05531 13.0762C4.25516 11.3681 5.00008 9.76992 6.17965 8.51853C7.35922 7.26713 8.91064 6.42914 10.6039 6.12879C12.2972 5.82845 14.0422 6.08173 15.5802 6.8511L17.4302 5.6211C15.5467 4.41331 13.3125 3.8721 11.0851 4.08403C8.85763 4.29597 6.76562 5.24879 5.14367 6.79011C3.52171 8.33142 2.46353 10.3722 2.13839 12.5859C1.81325 14.7997 2.23992 17.0585 3.35017 19.0011C3.52468 19.3034 3.77526 19.5547 4.077 19.7301C4.37875 19.9056 4.72115 19.999 5.07017 20.0011H18.9202C19.2726 20.0025 19.6191 19.9107 19.9247 19.7351C20.2302 19.5595 20.484 19.3063 20.6602 19.0011C21.5815 17.405 22.0439 15.5854 21.9963 13.7431C21.9486 11.9007 21.3928 10.1074 20.3902 8.5611L20.3802 8.5711Z" fill="#E6E1E5"/>
<path d="M10.5905 15.4119C10.7762 15.5978 10.9968 15.7453 11.2396 15.846C11.4824 15.9466 11.7426 15.9984 12.0055 15.9984C12.2683 15.9984 12.5286 15.9466 12.7714 15.846C13.0142 15.7453 13.2347 15.5978 13.4205 15.4119L19.0805 6.92188L10.5905 12.5819C10.4045 12.7676 10.257 12.9882 10.1564 13.231C10.0557 13.4738 10.0039 13.734 10.0039 13.9969C10.0039 14.2597 10.0557 14.52 10.1564 14.7628C10.257 15.0056 10.4045 15.2261 10.5905 15.4119Z" fill="#E6E1E5"/>
</g>
<defs>
<clipPath id="clip0_14510_18858">
<rect width="24" height="24" fill="white"/>
</clipPath>
</defs>
</svg>
