<svg width="80" height="80" viewBox="0 0 80 80" fill="none" xmlns="http://www.w3.org/2000/svg">
<rect width="80" height="80" fill="#E5E5E5"/>
<g id="Log in filled">
<rect width="390" height="844" transform="translate(-155 -240)" fill="#1C1B1F"/>
<g id="Frame 1464">
<g id="Frame 1468">
<g id="Frame 1466">
<path id="Vector" d="M9.91932 74.2084C-0.104027 66.4504 -1.96416 52.0217 5.79156 42.0013C7.30129 40.0507 9.06364 38.4093 10.997 37.0877C11.6746 45.0314 15.0495 52.7875 21.131 58.869C27.2104 64.9483 34.9638 68.3297 42.9054 69.0131C42.6575 69.374 42.3979 69.73 42.1265 70.0807C34.3685 80.104 19.9397 81.9642 9.91932 74.2084ZM39.2229 36.2919C31.4204 30.2529 21.1633 29.5764 12.8718 33.6785C12.974 25.3476 16.2023 17.0465 22.5461 10.6873C35.4306 -2.22861 56.3939 -2.22985 69.3119 10.6881C82.2294 23.6056 82.2294 44.5373 69.3119 57.4547C62.9535 63.8132 54.6533 67.0417 46.3229 67.1405C51.5187 56.7021 48.7925 43.6988 39.2229 36.2919Z" stroke="#FB6E4E" stroke-opacity="0.4" stroke-width="2"/>
</g>
</g>
</g>
</g>
</svg>
