<svg width="111" height="16" viewBox="0 0 111 16" fill="none" xmlns="http://www.w3.org/2000/svg">
<path d="M4.3189 1.76911L9.46776 16H16.4795V0H12.7537V14.1962L7.60486 0H0.558594V16H4.2844L4.3189 1.76911Z" fill="#1C1B1F"/>
<path d="M52.9052 0L49.4329 14.1962L45.9607 0H38.9141V16H42.5906V1.76911L46.0628 16H52.752L56.2242 1.76911V16H59.9007V0H52.9137H52.9052Z" fill="#1C1B1F"/>
<path d="M27.6944 7.9351L23.0176 0H18.6484L25.7956 12.2012V16H29.5933V12.2012L36.7404 0H32.3713L27.6944 7.9351Z" fill="#1C1B1F"/>
<path d="M68.491 16L62.0742 0H65.9312L70.0822 11.1888L74.2333 0H77.9952L71.5783 16H68.491Z" fill="#FB6E4E"/>
<path d="M80.8957 16V0H87.6148C89.5589 0 91.0909 0.505447 92.2197 1.51634C93.3485 2.52723 93.9129 3.86928 93.9129 5.52505V5.56863C93.9129 7.36384 93.2858 8.75817 92.0316 9.72549C90.7773 10.7015 89.1916 11.1895 87.2565 11.1895H84.5061V15.9913H80.8867L80.8957 16ZM84.5151 8.06972H87.3819C88.2599 8.06972 88.9587 7.84314 89.4693 7.38126C89.9889 6.92811 90.2487 6.34423 90.2487 5.64706V5.60349C90.2487 4.82789 89.9889 4.22658 89.4693 3.80828C88.9497 3.38998 88.233 3.18083 87.3102 3.18083H84.5151V8.06972Z" fill="#FB6E4E"/>
<path d="M96.0948 16V0H99.3939L107.021 9.85621V0H110.56V16H107.509L99.6245 5.83007V16H96.0859H96.0948Z" fill="#FB6E4E"/>
</svg>
