<svg width="112" height="112" viewBox="0 0 112 112" fill="currentColor" xmlns="http://www.w3.org/2000/svg">
<path fill-rule="evenodd" clip-rule="evenodd" d="M56 112C86.9279 112 112 86.9279 112 56C112 25.0721 86.9279 0 56 0C25.0721 0 0 25.0721 0 56C0 86.9279 25.0721 112 56 112ZM45.7619 26.0929C45.7619 23.8325 47.5982 22 49.8633 22C65.2158 22 77.6615 34.4199 77.6615 49.7405C77.6615 52.0009 75.8253 53.8334 73.5601 53.8334C71.295 53.8334 69.4587 52.0009 69.4587 49.7405C69.4587 38.9407 60.6856 30.1858 49.8633 30.1858C47.5982 30.1858 45.7619 28.3533 45.7619 26.0929ZM90.0004 49.7405C90.0004 47.4801 88.1641 45.6476 85.899 45.6476C83.6339 45.6476 81.7976 47.4801 81.7976 49.7405C81.7976 60.5403 73.0244 69.2952 62.2022 69.2952C59.937 69.2952 58.1008 71.1277 58.1008 73.3881C58.1008 75.6486 59.937 77.481 62.2022 77.481C77.5547 77.481 90.0004 65.0611 90.0004 49.7405ZM66.3034 85.9069C66.3034 88.1674 64.4672 89.9998 62.202 89.9998C46.8495 89.9998 34.4038 77.5799 34.4038 62.2593C34.4038 59.9989 36.2401 58.1664 38.5052 58.1664C40.7704 58.1664 42.6066 59.9989 42.6066 62.2593C42.6066 73.0591 51.3798 81.814 62.202 81.814C64.4672 81.814 66.3034 83.6465 66.3034 85.9069ZM22 62.2593C22 64.5198 23.8363 66.3522 26.1014 66.3522C28.3665 66.3522 30.2028 64.5198 30.2028 62.2593C30.2028 51.4595 38.976 42.7046 49.7982 42.7046C52.0634 42.7046 53.8996 40.8721 53.8996 38.6117C53.8996 36.3512 52.0634 34.5188 49.7982 34.5188C34.4457 34.5188 22 46.9387 22 62.2593Z"/>
</svg>
