<svg width="111" height="17" viewBox="0 0 111 17" fill="none" xmlns="http://www.w3.org/2000/svg">
<path d="M4.3189 1.96832L9.46776 16.1992H16.4795V0.199219H12.7537V14.3954L7.60486 0.199219H0.558594V16.1992H4.2844L4.3189 1.96832Z" fill="white"/>
<path d="M52.9052 0.199219L49.4329 14.3954L45.9607 0.199219H38.9141V16.1992H42.5906V1.96832L46.0628 16.1992H52.752L56.2242 1.96832V16.1992H59.9007V0.199219H52.9137H52.9052Z" fill="white"/>
<path d="M27.6944 8.13432L23.0176 0.199219H18.6484L25.7956 12.4004V16.1992H29.5933V12.4004L36.7404 0.199219H32.3713L27.6944 8.13432Z" fill="white"/>
<path d="M68.491 16.1992L62.0742 0.199219H65.9312L70.0822 11.388L74.2333 0.199219H77.9952L71.5783 16.1992H68.491Z" fill="#FB6E4E"/>
<path d="M80.8957 16.1992V0.199219H87.6148C89.5589 0.199219 91.0909 0.704665 92.2197 1.71556C93.3485 2.72645 93.9129 4.0685 93.9129 5.72427V5.76785C93.9129 7.56305 93.2858 8.95739 92.0316 9.92471C90.7773 10.9007 89.1916 11.3888 87.2565 11.3888H84.5061V16.1905H80.8867L80.8957 16.1992ZM84.5151 8.26894H87.3819C88.2599 8.26894 88.9587 8.04236 89.4693 7.58048C89.9889 7.12732 90.2487 6.54345 90.2487 5.84628V5.80271C90.2487 5.02711 89.9889 4.4258 89.4693 4.0075C88.9497 3.5892 88.233 3.38005 87.3102 3.38005H84.5151V8.26894Z" fill="#FB6E4E"/>
<path d="M96.0948 16.1992V0.199219H99.3939L107.021 10.0554V0.199219H110.56V16.1992H107.509L99.6245 6.02928V16.1992H96.0859H96.0948Z" fill="#FB6E4E"/>
</svg>
