<svg width="26" height="26" viewBox="0 0 26 26" fill="currentColor" xmlns="http://www.w3.org/2000/svg">
<path fill-rule="evenodd" clip-rule="evenodd" d="M4.40829 4.74674C4.35735 4.78726 4.30449 4.82546 4.24986 4.86118L6.46668 9.29488L7.71155 8.05001L4.40829 4.74674ZM3.10129 5.20258C3.354 5.20258 3.59629 5.15797 3.82071 5.07619L6.10891 9.65265L4.40686 11.3547C4.04832 11.07 3.59466 10.9 3.10129 10.9C1.94078 10.9 1 11.8408 1 13.0013C1 14.1618 1.94078 15.1026 3.10129 15.1026C3.59532 15.1026 4.04953 14.9321 4.4083 14.6467L6.10804 16.3465L3.81852 20.9256C3.59471 20.8443 3.35317 20.8 3.10129 20.8C1.94078 20.8 1 21.7408 1 22.9013C1 24.0618 1.94078 25.0026 3.10129 25.0026C4.17765 25.0026 5.06499 24.1933 5.18801 23.15H10.9127C11.0357 24.1933 11.9231 25.0026 12.9994 25.0026C14.0758 25.0026 14.9631 24.1933 15.0861 23.15H20.8118C20.9348 24.1933 21.8221 25.0026 22.8985 25.0026C24.059 25.0026 24.9998 24.0618 24.9998 22.9013C24.9998 21.7408 24.059 20.8 22.8985 20.8C22.6464 20.8 22.4048 20.8444 22.1808 20.9257L19.8912 16.3465L21.5911 14.6465C21.95 14.932 22.4043 15.1026 22.8985 15.1026C24.059 15.1026 24.9998 14.1618 24.9998 13.0013C24.9998 11.8408 24.059 10.9 22.8985 10.9C22.405 10.9 21.9512 11.0701 21.5926 11.355L19.8903 9.65267L22.1786 5.07604C22.4032 5.15791 22.6456 5.20258 22.8985 5.20258C24.059 5.20258 24.9998 4.2618 24.9998 3.10129C24.9998 1.94078 24.059 1 22.8985 1C21.823 1 20.9362 1.80796 20.8121 2.85H15.0858C14.9617 1.80796 14.0749 1 12.9994 1C11.9239 1 11.0372 1.80796 10.913 2.85H5.18771C5.06353 1.80796 4.17676 1 3.10129 1C1.94078 1 1 1.94078 1 3.10129C1 4.2618 1.94078 5.20258 3.10129 5.20258ZM20.8121 22.65H15.0858C15.039 22.2572 14.8838 21.8976 14.651 21.6021L17.9573 18.2958L21.2543 21.5927C21.0173 21.89 20.8594 22.253 20.8121 22.65ZM14.1464 21.1403C14.1983 21.1743 14.2487 21.2104 14.2973 21.2487L17.596 17.95L16.3597 16.7137L14.1464 21.1403ZM12.9994 20.8C13.2514 20.8 13.4931 20.8444 13.717 20.9257L16.0019 16.3559L14.2988 14.6528C13.9412 14.9345 13.4899 15.1026 12.9994 15.1026C12.5093 15.1026 12.0584 14.9348 11.701 14.6535L9.99762 16.3569L12.282 20.9257C12.5058 20.8443 12.7475 20.8 12.9994 20.8ZM10.913 22.65C10.9599 22.2568 11.1153 21.8969 11.3485 21.6011L8.04257 18.2952L4.74529 21.5925C4.98233 21.8898 5.14039 22.2529 5.18771 22.65H10.913ZM11.7024 21.2479C11.7508 21.2099 11.8009 21.174 11.8526 21.1402L9.63985 16.7146L8.40449 17.95L11.7024 21.2479ZM21.7515 21.1404C21.6972 21.1758 21.6447 21.2136 21.5941 21.2537L18.289 17.9486L19.5334 16.7042L21.7515 21.1404ZM4.24791 21.1401C4.30219 21.1755 4.35474 21.2134 4.4054 21.2535L7.71025 17.9487L6.46581 16.7042L4.24791 21.1401ZM19.664 10.1052L21.2531 11.6943C21.0168 11.9913 20.8593 12.3537 20.8121 12.75H18.3416L19.664 10.1052ZM21.2519 14.3069C21.0158 14.0095 20.8585 13.6467 20.8118 13.25H18.3429L19.6649 15.8939L21.2519 14.3069ZM4.7476 14.3072L6.33431 15.8939L7.65625 13.25H5.18801C5.14122 13.6468 4.98387 14.0098 4.7476 14.3072ZM5.18771 12.75H7.65756L6.33518 10.1052L4.74645 11.6939C4.98285 11.991 5.14046 12.3536 5.18771 12.75ZM5.18801 3.35H10.9127C10.9595 3.74711 11.1171 4.11032 11.3537 4.4079L8.05096 7.7106L4.74759 4.40722C4.98386 4.10977 5.14122 3.74681 5.18801 3.35ZM11.8507 4.86106C11.7963 4.82553 11.7438 4.78755 11.6931 4.74729L8.39038 8.05001L9.63427 9.2939L11.8507 4.86106ZM12.9994 5.20258C12.7466 5.20258 12.5043 5.15794 12.2798 5.07612L9.99204 9.65168L11.6945 11.3542C12.053 11.0698 12.5064 10.9 12.9994 10.9C13.4926 10.9 13.9461 11.0699 14.3046 11.3544L16.0071 9.65181L13.7192 5.07606C13.4947 5.15792 13.2523 5.20258 12.9994 5.20258ZM14.6442 11.6935L16.2334 10.1044L17.5562 12.75H15.0858C15.0386 12.3534 14.8808 11.9907 14.6442 11.6935ZM11.3548 11.6932C11.1181 11.9905 10.9603 12.3533 10.913 12.75H8.4429L9.76577 10.1042L11.3548 11.6932ZM10.9127 13.25H8.44421L9.76192 15.8855L11.3474 14.3C11.1143 14.0039 10.9591 13.6436 10.9127 13.25ZM14.6522 14.2991C14.8849 14.0031 15.0398 13.6432 15.0861 13.25H17.5549L16.2376 15.8845L14.6522 14.2991ZM15.0861 3.35C15.0393 3.74703 14.8818 4.11016 14.6453 4.40771L17.9483 7.71066L21.252 4.40696C21.0158 4.10956 20.8585 3.74669 20.8118 3.35H15.0861ZM14.3059 4.74713C14.2552 4.78742 14.2027 4.82541 14.1483 4.86096L16.3649 9.29404L17.6089 8.05007L14.3059 4.74713ZM21.5912 4.74654L18.2877 8.05007L19.5325 9.2949L21.7495 4.86094C21.6949 4.82522 21.6421 4.78704 21.5912 4.74654ZM8.04388 17.6035L9.40415 16.2432L8.05023 13.5354L6.69208 16.2517L8.04388 17.6035ZM16.5954 16.2423L17.9559 17.6028L19.3071 16.2517L17.9489 13.5353L16.5954 16.2423ZM6.69295 9.74743L8.05096 8.38942L9.408 9.74645L8.05023 12.462L6.69295 9.74743ZM17.9483 8.38948L19.3062 9.74745L17.9489 12.462L16.5912 9.74659L17.9483 8.38948ZM4.72211 3.10473C4.72211 4.00014 3.99623 4.72602 3.10082 4.72602C2.20541 4.72602 1.47953 4.00014 1.47953 3.10473C1.47953 2.20931 2.20541 1.48344 3.10082 1.48344C3.99623 1.48344 4.72211 2.20931 4.72211 3.10473ZM22.898 4.72602C23.7934 4.72602 24.5193 4.00014 24.5193 3.10473C24.5193 2.20931 23.7934 1.48344 22.898 1.48344C22.0026 1.48344 21.2767 2.20931 21.2767 3.10473C21.2767 4.00014 22.0026 4.72602 22.898 4.72602ZM14.6202 3.10473C14.6202 4.00014 13.8944 4.72602 12.9989 4.72602C12.1035 4.72602 11.3777 4.00014 11.3777 3.10473C11.3777 2.20931 12.1035 1.48344 12.9989 1.48344C13.8944 1.48344 14.6202 2.20931 14.6202 3.10473ZM3.10082 14.626C3.99623 14.626 4.72211 13.9001 4.72211 13.0047C4.72211 12.1093 3.99623 11.3834 3.10082 11.3834C2.20541 11.3834 1.47953 12.1093 1.47953 13.0047C1.47953 13.9001 2.20541 14.626 3.10082 14.626ZM24.5193 13.0047C24.5193 13.9001 23.7934 14.626 22.898 14.626C22.0026 14.626 21.2767 13.9001 21.2767 13.0047C21.2767 12.1093 22.0026 11.3834 22.898 11.3834C23.7934 11.3834 24.5193 12.1093 24.5193 13.0047ZM12.9989 14.626C13.8944 14.626 14.6202 13.9001 14.6202 13.0047C14.6202 12.1093 13.8944 11.3834 12.9989 11.3834C12.1035 11.3834 11.3777 12.1093 11.3777 13.0047C11.3777 13.9001 12.1035 14.626 12.9989 14.626ZM4.72211 22.9047C4.72211 23.8001 3.99623 24.526 3.10082 24.526C2.20541 24.526 1.47953 23.8001 1.47953 22.9047C1.47953 22.0093 2.20541 21.2834 3.10082 21.2834C3.99623 21.2834 4.72211 22.0093 4.72211 22.9047ZM22.898 24.526C23.7934 24.526 24.5193 23.8001 24.5193 22.9047C24.5193 22.0093 23.7934 21.2834 22.898 21.2834C22.0026 21.2834 21.2767 22.0093 21.2767 22.9047C21.2767 23.8001 22.0026 24.526 22.898 24.526ZM14.6202 22.9047C14.6202 23.8001 13.8944 24.526 12.9989 24.526C12.1035 24.526 11.3777 23.8001 11.3777 22.9047C11.3777 22.0093 12.1035 21.2834 12.9989 21.2834C13.8944 21.2834 14.6202 22.0093 14.6202 22.9047Z" fill="currentColor"/>
<path d="M4.24986 4.86118L4.1404 4.6938C4.05542 4.74937 4.02557 4.8598 4.07098 4.95062L4.24986 4.86118ZM4.40829 4.74674L4.54971 4.60532C4.4778 4.53341 4.36338 4.52691 4.28379 4.59022L4.40829 4.74674ZM6.46668 9.29488L6.28779 9.38433C6.31654 9.44183 6.37118 9.482 6.43464 9.4923C6.4981 9.5026 6.56264 9.48176 6.6081 9.43631L6.46668 9.29488ZM7.71155 8.05001L7.85297 8.19143C7.93108 8.11333 7.93108 7.98669 7.85297 7.90859L7.71155 8.05001ZM3.82071 5.07619L3.9996 4.98675C3.95415 4.89584 3.84774 4.85348 3.75224 4.88828L3.82071 5.07619ZM6.10891 9.65265L6.25033 9.79408C6.3112 9.7332 6.32629 9.64021 6.28779 9.56321L6.10891 9.65265ZM4.40686 11.3547L4.2825 11.5113C4.36209 11.5745 4.47642 11.568 4.54828 11.4961L4.40686 11.3547ZM4.4083 14.6467L4.54972 14.5053C4.47781 14.4334 4.36339 14.4269 4.2838 14.4902L4.4083 14.6467ZM6.10804 16.3465L6.28692 16.4359C6.32542 16.3589 6.31033 16.2659 6.24946 16.2051L6.10804 16.3465ZM3.81852 20.9256L3.75026 21.1136C3.84571 21.1482 3.95199 21.1059 3.9974 21.015L3.81852 20.9256ZM5.18801 23.15V22.95C5.08662 22.95 5.00126 23.0259 4.98939 23.1266L5.18801 23.15ZM10.9127 23.15L11.1113 23.1266C11.0994 23.0259 11.0141 22.95 10.9127 22.95V23.15ZM15.0861 23.15V22.95C14.9847 22.95 14.8994 23.0259 14.8875 23.1266L15.0861 23.15ZM20.8118 23.15L21.0104 23.1266C20.9985 23.0259 20.9131 22.95 20.8118 22.95V23.15ZM22.1808 20.9257L22.0019 21.0152C22.0474 21.106 22.1537 21.1484 22.2491 21.1137L22.1808 20.9257ZM19.8912 16.3465L19.7497 16.205C19.6889 16.2659 19.6738 16.3589 19.7123 16.4359L19.8912 16.3465ZM21.5911 14.6465L21.7157 14.49C21.6361 14.4266 21.5216 14.4331 21.4497 14.5051L21.5911 14.6465ZM21.5926 11.355L21.4512 11.4964C21.523 11.5683 21.6374 11.5748 21.717 11.5116L21.5926 11.355ZM19.8903 9.65267L19.7114 9.56323C19.6729 9.64023 19.688 9.73322 19.7489 9.79409L19.8903 9.65267ZM22.1786 5.07604L22.2471 4.88814C22.1516 4.85332 22.0452 4.89568 21.9998 4.9866L22.1786 5.07604ZM20.8121 2.85V3.05C20.9134 3.05 20.9987 2.97426 21.0107 2.87367L20.8121 2.85ZM15.0858 2.85L14.8872 2.87367C14.8992 2.97426 14.9845 3.05 15.0858 3.05V2.85ZM10.913 2.85V3.05C11.0143 3.05 11.0996 2.97426 11.1116 2.87367L10.913 2.85ZM5.18771 2.85L4.98911 2.87367C5.0011 2.97426 5.08641 3.05 5.18771 3.05V2.85ZM15.0858 22.65L14.8872 22.6737C14.8992 22.7743 14.9845 22.85 15.0858 22.85V22.65ZM20.8121 22.65V22.85C20.9134 22.85 20.9987 22.7743 21.0107 22.6737L20.8121 22.65ZM14.651 21.6021L14.5096 21.4607C14.438 21.5323 14.4312 21.6462 14.4939 21.7258L14.651 21.6021ZM17.9573 18.2958L18.0987 18.1544C18.0206 18.0763 17.894 18.0763 17.8159 18.1544L17.9573 18.2958ZM21.2543 21.5927L21.4107 21.7174C21.4741 21.6378 21.4677 21.5233 21.3957 21.4513L21.2543 21.5927ZM14.2973 21.2487L14.1737 21.4059C14.2533 21.4685 14.3671 21.4617 14.4388 21.3901L14.2973 21.2487ZM14.1464 21.1403L13.9675 21.0509C13.922 21.1418 13.952 21.2523 14.0371 21.3078L14.1464 21.1403ZM17.596 17.95L17.7374 18.0914C17.8155 18.0133 17.8155 17.8867 17.7374 17.8086L17.596 17.95ZM16.3597 16.7137L16.5011 16.5723C16.4557 16.5268 16.3911 16.506 16.3277 16.5163C16.2642 16.5266 16.2096 16.5668 16.1808 16.6243L16.3597 16.7137ZM13.717 20.9257L13.6487 21.1137C13.7442 21.1484 13.8505 21.106 13.8959 21.0152L13.717 20.9257ZM16.0019 16.3559L16.1808 16.4454C16.2193 16.3684 16.2042 16.2754 16.1434 16.2145L16.0019 16.3559ZM14.2988 14.6528L14.4402 14.5114C14.3685 14.4397 14.2546 14.433 14.175 14.4957L14.2988 14.6528ZM11.701 14.6535L11.8247 14.4963C11.7451 14.4337 11.6312 14.4405 11.5596 14.5121L11.701 14.6535ZM9.99762 16.3569L9.8562 16.2155C9.79533 16.2763 9.78024 16.3693 9.81873 16.4463L9.99762 16.3569ZM12.282 20.9257L12.1031 21.0151C12.1485 21.1059 12.2548 21.1483 12.3503 21.1136L12.282 20.9257ZM11.3485 21.6011L11.5056 21.725C11.5683 21.6454 11.5616 21.5314 11.49 21.4597L11.3485 21.6011ZM10.913 22.65V22.85C11.0143 22.85 11.0996 22.7743 11.1116 22.6737L10.913 22.65ZM8.04257 18.2952L8.18399 18.1538C8.14649 18.1163 8.09561 18.0952 8.04257 18.0952C7.98953 18.0952 7.93866 18.1163 7.90115 18.1538L8.04257 18.2952ZM4.74529 21.5925L4.60387 21.451C4.5319 21.523 4.52546 21.6376 4.5889 21.7171L4.74529 21.5925ZM5.18771 22.65L4.98911 22.6737C5.0011 22.7743 5.08641 22.85 5.18771 22.85V22.65ZM11.8526 21.1402L11.9619 21.3077C12.047 21.2522 12.0769 21.1417 12.0315 21.0508L11.8526 21.1402ZM11.7024 21.2479L11.561 21.3893C11.6326 21.4609 11.7464 21.4677 11.826 21.4052L11.7024 21.2479ZM9.63985 16.7146L9.81873 16.6252C9.78998 16.5677 9.73534 16.5275 9.67189 16.5172C9.60843 16.5069 9.54389 16.5278 9.49843 16.5732L9.63985 16.7146ZM8.40449 17.95L8.26307 17.8086C8.18496 17.8867 8.18496 18.0133 8.26307 18.0914L8.40449 17.95ZM21.5941 21.2537L21.4527 21.3952C21.5245 21.467 21.6388 21.4736 21.7184 21.4105L21.5941 21.2537ZM21.7515 21.1404L21.8608 21.3078C21.9459 21.2523 21.9758 21.1418 21.9304 21.0509L21.7515 21.1404ZM18.289 17.9486L18.1476 17.8072C18.1101 17.8447 18.089 17.8956 18.089 17.9486C18.089 18.0017 18.1101 18.0525 18.1476 18.09L18.289 17.9486ZM19.5334 16.7042L19.7123 16.6148C19.6835 16.5573 19.6289 16.5171 19.5654 16.5068C19.502 16.4965 19.4374 16.5173 19.392 16.5628L19.5334 16.7042ZM4.4054 21.2535L4.28118 21.4103C4.36077 21.4734 4.475 21.4668 4.54682 21.395L4.4054 21.2535ZM4.24791 21.1401L4.06902 21.0507C4.02357 21.1416 4.05352 21.2521 4.13863 21.3076L4.24791 21.1401ZM7.71025 17.9487L7.85167 18.0901C7.88918 18.0526 7.91025 18.0017 7.91025 17.9487C7.91025 17.8956 7.88918 17.8448 7.85167 17.8073L7.71025 17.9487ZM6.46581 16.7042L6.60723 16.5628C6.56177 16.5174 6.49723 16.4965 6.43377 16.5068C6.37031 16.5171 6.31567 16.5573 6.28692 16.6148L6.46581 16.7042ZM21.2531 11.6943L21.4096 11.8188C21.4729 11.7392 21.4664 11.6247 21.3945 11.5528L21.2531 11.6943ZM19.664 10.1052L19.8054 9.9638C19.76 9.91834 19.6954 9.8975 19.632 9.9078C19.5685 9.9181 19.5139 9.95827 19.4851 10.0158L19.664 10.1052ZM20.8121 12.75V12.95C20.9134 12.95 20.9987 12.8743 21.0107 12.7737L20.8121 12.75ZM18.3416 12.75L18.1627 12.6606C18.1317 12.7226 18.135 12.7962 18.1715 12.8551C18.2079 12.9141 18.2723 12.95 18.3416 12.95V12.75ZM20.8118 13.25L21.0104 13.2266C20.9985 13.1259 20.9131 13.05 20.8118 13.05V13.25ZM21.2519 14.3069L21.3933 14.4483C21.4652 14.3764 21.4717 14.2621 21.4085 14.1825L21.2519 14.3069ZM18.3429 13.25V13.05C18.2736 13.05 18.2092 13.0859 18.1728 13.1449C18.1363 13.2038 18.133 13.2774 18.164 13.3394L18.3429 13.25ZM19.6649 15.8939L19.486 15.9834C19.5147 16.0409 19.5694 16.081 19.6328 16.0913C19.6963 16.1016 19.7608 16.0808 19.8063 16.0353L19.6649 15.8939ZM6.33431 15.8939L6.19289 16.0353C6.23835 16.0808 6.30289 16.1016 6.36635 16.0913C6.42981 16.081 6.48445 16.0409 6.5132 15.9834L6.33431 15.8939ZM4.7476 14.3072L4.59099 14.1828C4.52777 14.2624 4.5343 14.3768 4.60618 14.4486L4.7476 14.3072ZM7.65625 13.25L7.83514 13.3394C7.86614 13.2774 7.86282 13.2038 7.82638 13.1449C7.78994 13.0859 7.72557 13.05 7.65625 13.05V13.25ZM5.18801 13.25V13.05C5.08662 13.05 5.00126 13.1259 4.98939 13.2266L5.18801 13.25ZM7.65756 12.75V12.95C7.72687 12.95 7.79125 12.9141 7.82769 12.8551C7.86413 12.7962 7.86744 12.7226 7.83644 12.6606L7.65756 12.75ZM5.18771 12.75L4.98911 12.7737C5.0011 12.8743 5.08641 12.95 5.18771 12.95V12.75ZM6.33518 10.1052L6.51407 10.0158C6.48532 9.95826 6.43068 9.91809 6.36722 9.90779C6.30376 9.89749 6.23922 9.91833 6.19376 9.96378L6.33518 10.1052ZM4.74645 11.6939L4.60503 11.5525C4.53311 11.6244 4.52663 11.7389 4.58996 11.8185L4.74645 11.6939ZM10.9127 3.35L11.1113 3.32658C11.0994 3.22588 11.0141 3.15 10.9127 3.15V3.35ZM5.18801 3.35V3.15C5.08662 3.15 5.00126 3.22588 4.98939 3.32658L5.18801 3.35ZM11.3537 4.4079L11.4951 4.54933C11.567 4.47743 11.5735 4.36303 11.5102 4.28344L11.3537 4.4079ZM8.05096 7.7106L7.90954 7.85202C7.94705 7.88953 7.99792 7.9106 8.05096 7.9106C8.10401 7.9106 8.15488 7.88953 8.19239 7.85202L8.05096 7.7106ZM4.74759 4.40722L4.59098 4.28283C4.52776 4.36242 4.53429 4.47677 4.60617 4.54864L4.74759 4.40722ZM11.6931 4.74729L11.8175 4.59071C11.7379 4.52746 11.6236 4.53398 11.5517 4.60586L11.6931 4.74729ZM11.8507 4.86106L12.0295 4.9505C12.075 4.85969 12.0451 4.74927 11.9601 4.69369L11.8507 4.86106ZM8.39038 8.05001L8.24895 7.90859C8.21145 7.94609 8.19038 7.99697 8.19038 8.05001C8.19038 8.10305 8.21145 8.15392 8.24895 8.19143L8.39038 8.05001ZM9.63427 9.2939L9.49285 9.43532C9.53831 9.48078 9.60285 9.50162 9.66631 9.49132C9.72977 9.48102 9.78441 9.44085 9.81316 9.38335L9.63427 9.2939ZM12.2798 5.07612L12.3483 4.88821C12.2528 4.8534 12.1464 4.89576 12.1009 4.98668L12.2798 5.07612ZM9.99204 9.65168L9.81316 9.56223C9.77466 9.63923 9.78975 9.73222 9.85062 9.7931L9.99204 9.65168ZM11.6945 11.3542L11.5531 11.4956C11.6249 11.5674 11.7392 11.574 11.8188 11.5108L11.6945 11.3542ZM14.3046 11.3544L14.1802 11.511C14.2598 11.5742 14.3741 11.5676 14.446 11.4958L14.3046 11.3544ZM16.0071 9.65181L16.1485 9.79323C16.2094 9.73236 16.2245 9.63936 16.186 9.56237L16.0071 9.65181ZM13.7192 5.07606L13.8981 4.98661C13.8526 4.89569 13.7462 4.85334 13.6507 4.88816L13.7192 5.07606ZM16.2334 10.1044L16.4123 10.0149C16.3835 9.95741 16.3289 9.91724 16.2654 9.90694C16.202 9.89664 16.1374 9.91748 16.092 9.96294L16.2334 10.1044ZM14.6442 11.6935L14.5028 11.5521C14.4309 11.624 14.4244 11.7385 14.4878 11.8181L14.6442 11.6935ZM17.5562 12.75V12.95C17.6256 12.95 17.6899 12.9141 17.7264 12.8551C17.7628 12.7962 17.7661 12.7226 17.7351 12.6606L17.5562 12.75ZM15.0858 12.75L14.8872 12.7737C14.8992 12.8743 14.9845 12.95 15.0858 12.95V12.75ZM10.913 12.75V12.95C11.0143 12.95 11.0996 12.8743 11.1116 12.7737L10.913 12.75ZM11.3548 11.6932L11.5112 11.8178C11.5746 11.7383 11.5682 11.6238 11.4962 11.5518L11.3548 11.6932ZM8.4429 12.75L8.26402 12.6606C8.23302 12.7226 8.23633 12.7962 8.27277 12.8551C8.30921 12.9141 8.37359 12.95 8.4429 12.95V12.75ZM9.76577 10.1042L9.90719 9.9628C9.86173 9.91735 9.79719 9.89651 9.73373 9.90681C9.67027 9.91711 9.61563 9.95728 9.58688 10.0148L9.76577 10.1042ZM8.44421 13.25V13.05C8.37489 13.05 8.31052 13.0859 8.27408 13.1449C8.23764 13.2038 8.23432 13.2774 8.26532 13.3394L8.44421 13.25ZM10.9127 13.25L11.1113 13.2266C11.0994 13.1259 11.0141 13.05 10.9127 13.05V13.25ZM9.76192 15.8855L9.58303 15.9749C9.61178 16.0324 9.66642 16.0726 9.72988 16.0829C9.79334 16.0932 9.85788 16.0723 9.90334 16.0269L9.76192 15.8855ZM11.3474 14.3L11.4888 14.4414C11.5605 14.3698 11.5672 14.2559 11.5045 14.1763L11.3474 14.3ZM15.0861 13.25V13.05C14.9847 13.05 14.8994 13.1259 14.8875 13.2266L15.0861 13.25ZM14.6522 14.2991L14.4949 14.1754C14.4324 14.255 14.4391 14.3689 14.5107 14.4405L14.6522 14.2991ZM17.5549 13.25L17.7338 13.3394C17.7648 13.2774 17.7615 13.2038 17.7251 13.1449C17.6886 13.0859 17.6243 13.05 17.5549 13.05V13.25ZM16.2376 15.8845L16.0962 16.026C16.1417 16.0714 16.2062 16.0923 16.2697 16.082C16.3331 16.0717 16.3878 16.0315 16.4165 15.974L16.2376 15.8845ZM14.6453 4.40771L14.4888 4.28327C14.4255 4.36286 14.432 4.47724 14.5039 4.54913L14.6453 4.40771ZM15.0861 3.35V3.15C14.9847 3.15 14.8994 3.22588 14.8875 3.32658L15.0861 3.35ZM17.9483 7.71066L17.8069 7.85208C17.8444 7.88959 17.8952 7.91066 17.9483 7.91066C18.0013 7.91066 18.0522 7.88959 18.0897 7.85208L17.9483 7.71066ZM21.252 4.40696L21.3934 4.54839C21.4653 4.47652 21.4718 4.36218 21.4086 4.28259L21.252 4.40696ZM20.8118 3.35L21.0104 3.32658C20.9985 3.22588 20.9131 3.15 20.8118 3.15V3.35ZM14.1483 4.86096L14.0388 4.6936C13.9539 4.74918 13.924 4.8596 13.9694 4.9504L14.1483 4.86096ZM14.3059 4.74713L14.4473 4.60571C14.3755 4.53382 14.2611 4.5273 14.1815 4.59057L14.3059 4.74713ZM16.3649 9.29404L16.186 9.38348C16.2148 9.44099 16.2694 9.48116 16.3329 9.49146C16.3963 9.50176 16.4609 9.48092 16.5063 9.43546L16.3649 9.29404ZM17.6089 8.05007L17.7503 8.19149C17.8284 8.11339 17.8284 7.98676 17.7503 7.90865L17.6089 8.05007ZM18.2877 8.05007L18.1463 7.90865C18.1088 7.94616 18.0877 7.99703 18.0877 8.05007C18.0877 8.10312 18.1088 8.15399 18.1463 8.19149L18.2877 8.05007ZM21.5912 4.74654L21.7157 4.59003C21.6362 4.52671 21.5217 4.5332 21.4498 4.60512L21.5912 4.74654ZM19.5325 9.2949L19.3911 9.43632C19.4366 9.48178 19.5011 9.50262 19.5646 9.49232C19.628 9.48202 19.6827 9.44185 19.7114 9.38435L19.5325 9.2949ZM21.7495 4.86094L21.9284 4.95038C21.9738 4.85958 21.944 4.74916 21.859 4.69358L21.7495 4.86094ZM9.40415 16.2432L9.54557 16.3847C9.60644 16.3238 9.62153 16.2308 9.58303 16.1538L9.40415 16.2432ZM8.04388 17.6035L7.90246 17.7449C7.93997 17.7824 7.99084 17.8035 8.04388 17.8035C8.09693 17.8035 8.1478 17.7824 8.18531 17.7449L8.04388 17.6035ZM8.05023 13.5354L8.22912 13.4459C8.19524 13.3782 8.12598 13.3354 8.05023 13.3354C7.97448 13.3354 7.90522 13.3782 7.87134 13.4459L8.05023 13.5354ZM6.69208 16.2517L6.5132 16.1623C6.4747 16.2393 6.48979 16.3322 6.55066 16.3931L6.69208 16.2517ZM17.9559 17.6028L17.8145 17.7443C17.8926 17.8224 18.0193 17.8224 18.0974 17.7443L17.9559 17.6028ZM16.5954 16.2423L16.4165 16.1529C16.378 16.2299 16.3931 16.3229 16.454 16.3837L16.5954 16.2423ZM19.3071 16.2517L19.4485 16.3931C19.5094 16.3322 19.5245 16.2392 19.486 16.1622L19.3071 16.2517ZM17.9489 13.5353L18.1278 13.4459C18.0939 13.3781 18.0247 13.3353 17.9489 13.3353C17.8732 13.3353 17.8039 13.3781 17.77 13.4459L17.9489 13.5353ZM8.05096 8.38942L8.19239 8.248C8.11428 8.16989 7.98765 8.16989 7.90954 8.248L8.05096 8.38942ZM6.69295 9.74743L6.55153 9.60601C6.49066 9.66688 6.47557 9.75988 6.51407 9.83688L6.69295 9.74743ZM9.408 9.74645L9.58689 9.8359C9.62538 9.7589 9.61029 9.6659 9.54942 9.60503L9.408 9.74645ZM8.05023 12.462L7.87134 12.5515C7.90522 12.6192 7.97448 12.662 8.05023 12.662C8.12598 12.662 8.19524 12.6192 8.22912 12.5515L8.05023 12.462ZM19.3062 9.74745L19.4851 9.83689C19.5236 9.75989 19.5085 9.6669 19.4477 9.60603L19.3062 9.74745ZM17.9483 8.38948L18.0897 8.24806C18.0522 8.21055 18.0013 8.18948 17.9483 8.18948C17.8952 8.18948 17.8444 8.21055 17.8069 8.24806L17.9483 8.38948ZM17.9489 12.462L17.77 12.5515C17.8039 12.6192 17.8732 12.662 17.9489 12.662C18.0247 12.662 18.0939 12.6192 18.1278 12.5515L17.9489 12.462ZM16.5912 9.74659L16.4498 9.60517C16.3889 9.66604 16.3738 9.75903 16.4123 9.83603L16.5912 9.74659ZM4.35933 5.02856C4.41914 4.98944 4.47702 4.94762 4.53278 4.90327L4.28379 4.59022C4.23768 4.62689 4.18983 4.66147 4.1404 4.6938L4.35933 5.02856ZM6.64557 9.20544L4.42875 4.77174L4.07098 4.95062L6.28779 9.38433L6.64557 9.20544ZM7.57013 7.90859L6.32526 9.15346L6.6081 9.43631L7.85297 8.19143L7.57013 7.90859ZM4.26687 4.88816L7.57013 8.19143L7.85297 7.90859L4.54971 4.60532L4.26687 4.88816ZM3.75224 4.88828C3.54944 4.96218 3.33031 5.00258 3.10129 5.00258V5.40258C3.37769 5.40258 3.64314 5.35376 3.88918 5.26411L3.75224 4.88828ZM6.28779 9.56321L3.9996 4.98675L3.64183 5.16564L5.93002 9.7421L6.28779 9.56321ZM4.54828 11.4961L6.25033 9.79408L5.96749 9.51123L4.26544 11.2133L4.54828 11.4961ZM3.10129 11.1C3.5479 11.1 3.95806 11.2537 4.2825 11.5113L4.53122 11.1981C4.13859 10.8863 3.64142 10.7 3.10129 10.7V11.1ZM1.2 13.0013C1.2 11.9512 2.05124 11.1 3.10129 11.1V10.7C1.83032 10.7 0.8 11.7303 0.8 13.0013H1.2ZM3.10129 14.9026C2.05124 14.9026 1.2 14.0513 1.2 13.0013H0.8C0.8 14.2723 1.83032 15.3026 3.10129 15.3026V14.9026ZM4.2838 14.4902C3.95915 14.7484 3.5485 14.9026 3.10129 14.9026V15.3026C3.64214 15.3026 4.13991 15.1158 4.53279 14.8033L4.2838 14.4902ZM6.24946 16.2051L4.54972 14.5053L4.26688 14.7882L5.96662 16.4879L6.24946 16.2051ZM3.9974 21.015L6.28692 16.4359L5.92915 16.257L3.63963 20.8361L3.9974 21.015ZM3.10129 21C3.32956 21 3.54801 21.0401 3.75026 21.1136L3.88678 20.7376C3.6414 20.6485 3.37679 20.6 3.10129 20.6V21ZM1.2 22.9013C1.2 21.8512 2.05124 21 3.10129 21V20.6C1.83032 20.6 0.8 21.6303 0.8 22.9013H1.2ZM3.10129 24.8026C2.05124 24.8026 1.2 23.9513 1.2 22.9013H0.8C0.8 24.1723 1.83032 25.2026 3.10129 25.2026V24.8026ZM4.98939 23.1266C4.8781 24.0704 4.07506 24.8026 3.10129 24.8026V25.2026C4.28024 25.2026 5.25188 24.3162 5.38664 23.1734L4.98939 23.1266ZM10.9127 22.95H5.18801V23.35H10.9127V22.95ZM12.9994 24.8026C12.0256 24.8026 11.2226 24.0704 11.1113 23.1266L10.7141 23.1734C10.8488 24.3162 11.8205 25.2026 12.9994 25.2026V24.8026ZM14.8875 23.1266C14.7762 24.0704 13.9732 24.8026 12.9994 24.8026V25.2026C14.1784 25.2026 15.15 24.3162 15.2848 23.1734L14.8875 23.1266ZM20.8118 22.95H15.0861V23.35H20.8118V22.95ZM22.8985 24.8026C21.9247 24.8026 21.1217 24.0704 21.0104 23.1266L20.6131 23.1734C20.7479 24.3162 21.7195 25.2026 22.8985 25.2026V24.8026ZM24.7998 22.9013C24.7998 23.9513 23.9485 24.8026 22.8985 24.8026V25.2026C24.1694 25.2026 25.1998 24.1723 25.1998 22.9013H24.7998ZM22.8985 21C23.9485 21 24.7998 21.8512 24.7998 22.9013H25.1998C25.1998 21.6303 24.1694 20.6 22.8985 20.6V21ZM22.2491 21.1137C22.4515 21.0402 22.6701 21 22.8985 21V20.6C22.6228 20.6 22.358 20.6486 22.1125 20.7378L22.2491 21.1137ZM19.7123 16.4359L22.0019 21.0152L22.3597 20.8363L20.07 16.257L19.7123 16.4359ZM21.4497 14.5051L19.7497 16.205L20.0326 16.4879L21.7326 14.7879L21.4497 14.5051ZM22.8985 14.9026C22.4511 14.9026 22.0404 14.7483 21.7157 14.49L21.4666 14.803C21.8596 15.1156 22.3575 15.3026 22.8985 15.3026V14.9026ZM24.7998 13.0013C24.7998 14.0513 23.9485 14.9026 22.8985 14.9026V15.3026C24.1694 15.3026 25.1998 14.2723 25.1998 13.0013H24.7998ZM22.8985 11.1C23.9485 11.1 24.7998 11.9512 24.7998 13.0013H25.1998C25.1998 11.7303 24.1694 10.7 22.8985 10.7V11.1ZM21.717 11.5116C22.0415 11.2538 22.4517 11.1 22.8985 11.1V10.7C22.3582 10.7 21.8609 10.8864 21.4682 11.1984L21.717 11.5116ZM19.7489 9.79409L21.4512 11.4964L21.734 11.2135L20.0317 9.51125L19.7489 9.79409ZM21.9998 4.9866L19.7114 9.56323L20.0692 9.74212L22.3575 5.16549L21.9998 4.9866ZM22.8985 5.00258C22.6693 5.00258 22.4501 4.96213 22.2471 4.88814L22.1101 5.26394C22.3563 5.3537 22.6219 5.40258 22.8985 5.40258V5.00258ZM24.7998 3.10129C24.7998 4.15134 23.9485 5.00258 22.8985 5.00258V5.40258C24.1694 5.40258 25.1998 4.37226 25.1998 3.10129H24.7998ZM22.8985 1.2C23.9485 1.2 24.7998 2.05124 24.7998 3.10129H25.1998C25.1998 1.83032 24.1694 0.8 22.8985 0.8V1.2ZM21.0107 2.87367C21.123 1.93101 21.9255 1.2 22.8985 1.2V0.8C21.7205 0.8 20.7495 1.6849 20.6135 2.82633L21.0107 2.87367ZM15.0858 3.05H20.8121V2.65H15.0858V3.05ZM12.9994 1.2C13.9724 1.2 14.7749 1.93101 14.8872 2.87367L15.2844 2.82633C15.1484 1.6849 14.1774 0.8 12.9994 0.8V1.2ZM11.1116 2.87367C11.2239 1.93101 12.0264 1.2 12.9994 1.2V0.8C11.8214 0.8 10.8504 1.6849 10.7144 2.82633L11.1116 2.87367ZM5.18771 3.05H10.913V2.65H5.18771V3.05ZM3.10129 1.2C4.07425 1.2 4.87678 1.93101 4.98911 2.87367L5.3863 2.82633C5.25028 1.6849 4.27927 0.8 3.10129 0.8V1.2ZM1.2 3.10129C1.2 2.05124 2.05124 1.2 3.10129 1.2V0.8C1.83032 0.8 0.8 1.83032 0.8 3.10129H1.2ZM3.10129 5.00258C2.05124 5.00258 1.2 4.15134 1.2 3.10129H0.8C0.8 4.37226 1.83032 5.40258 3.10129 5.40258V5.00258ZM15.0858 22.85H20.8121V22.45H15.0858V22.85ZM14.4939 21.7258C14.7046 21.9934 14.8449 22.3185 14.8872 22.6737L15.2844 22.6263C15.2331 22.1959 15.063 21.8019 14.8081 21.4783L14.4939 21.7258ZM17.8159 18.1544L14.5096 21.4607L14.7925 21.7435L18.0987 18.4372L17.8159 18.1544ZM21.3957 21.4513L18.0987 18.1544L17.8159 18.4372L21.1128 21.7341L21.3957 21.4513ZM21.0107 22.6737C21.0534 22.3147 21.1962 21.9865 21.4107 21.7174L21.0979 21.4681C20.8385 21.7936 20.6653 22.1913 20.6135 22.6263L21.0107 22.6737ZM14.421 21.0915C14.3677 21.0496 14.3126 21.01 14.2557 20.9729L14.0371 21.3078C14.0841 21.3385 14.1297 21.3712 14.1737 21.4059L14.421 21.0915ZM17.4546 17.8086L14.1559 21.1072L14.4388 21.3901L17.7374 18.0914L17.4546 17.8086ZM16.2183 16.8551L17.4546 18.0914L17.7374 17.8086L16.5011 16.5723L16.2183 16.8551ZM14.3253 21.2298L16.5386 16.8032L16.1808 16.6243L13.9675 21.0509L14.3253 21.2298ZM13.7853 20.7377C13.5398 20.6486 13.2751 20.6 12.9994 20.6V21C13.2278 21 13.4464 21.0402 13.6487 21.1137L13.7853 20.7377ZM15.8231 16.2665L13.5381 20.8363L13.8959 21.0152L16.1808 16.4454L15.8231 16.2665ZM14.1574 14.7942L15.8605 16.4974L16.1434 16.2145L14.4402 14.5114L14.1574 14.7942ZM12.9994 15.3026C13.5364 15.3026 14.031 15.1184 14.4226 14.8099L14.175 14.4957C13.8515 14.7506 13.4435 14.9026 12.9994 14.9026V15.3026ZM11.5773 14.8107C11.9687 15.1187 12.4629 15.3026 12.9994 15.3026V14.9026C12.5558 14.9026 12.1481 14.7509 11.8247 14.4963L11.5773 14.8107ZM10.139 16.4983L11.8424 14.7949L11.5596 14.5121L9.8562 16.2155L10.139 16.4983ZM12.4609 20.8362L10.1765 16.2674L9.81873 16.4463L12.1031 21.0151L12.4609 20.8362ZM12.9994 20.6C12.7238 20.6 12.4591 20.6485 12.2137 20.7377L12.3503 21.1136C12.5526 21.0402 12.7711 21 12.9994 21V20.6ZM11.1915 21.4773C10.9362 21.8011 10.7658 22.1954 10.7144 22.6263L11.1116 22.6737C11.154 22.3181 11.2945 21.9927 11.5056 21.725L11.1915 21.4773ZM7.90115 18.4366L11.2071 21.7426L11.49 21.4597L8.18399 18.1538L7.90115 18.4366ZM4.88671 21.7339L8.18399 18.4366L7.90115 18.1538L4.60387 21.451L4.88671 21.7339ZM5.3863 22.6263C5.33445 22.1912 5.16119 21.7933 4.90168 21.4678L4.5889 21.7171C4.80346 21.9863 4.94633 22.3146 4.98911 22.6737L5.3863 22.6263ZM10.913 22.45H5.18771V22.85H10.913V22.45ZM11.7433 20.9727C11.6867 21.0097 11.6319 21.049 11.5789 21.0907L11.826 21.4052C11.8698 21.3708 11.9151 21.3383 11.9619 21.3077L11.7433 20.9727ZM9.46096 16.8041L11.6737 21.2297L12.0315 21.0508L9.81873 16.6252L9.46096 16.8041ZM8.54591 18.0914L9.78127 16.8561L9.49843 16.5732L8.26307 17.8086L8.54591 18.0914ZM11.8438 21.1065L8.54591 17.8086L8.26307 18.0914L11.561 21.3893L11.8438 21.1065ZM21.7184 21.4105C21.7642 21.3741 21.8117 21.3399 21.8608 21.3078L21.6422 20.9729C21.5828 21.0117 21.5253 21.0531 21.4699 21.097L21.7184 21.4105ZM18.1476 18.09L21.4527 21.3952L21.7355 21.1123L18.4304 17.8072L18.1476 18.09ZM19.392 16.5628L18.1476 17.8072L18.4304 18.09L19.6748 16.8456L19.392 16.5628ZM21.9304 21.0509L19.7123 16.6148L19.3545 16.7937L21.5726 21.2298L21.9304 21.0509ZM4.52962 21.0968C4.47417 21.0529 4.41664 21.0114 4.35718 20.9726L4.13863 21.3076C4.18775 21.3397 4.23532 21.3739 4.28118 21.4103L4.52962 21.0968ZM7.56883 17.8073L4.26398 21.1121L4.54682 21.395L7.85167 18.0901L7.56883 17.8073ZM6.32439 16.8457L7.56883 18.0901L7.85167 17.8073L6.60723 16.5628L6.32439 16.8457ZM4.42679 21.2296L6.6447 16.7937L6.28692 16.6148L4.06902 21.0507L4.42679 21.2296ZM21.3945 11.5528L19.8054 9.9638L19.5226 10.2466L21.1116 11.8357L21.3945 11.5528ZM21.0107 12.7737C21.0534 12.4154 21.1957 12.0876 21.4096 11.8188L21.0965 11.5698C20.8379 11.8949 20.6652 12.2921 20.6135 12.7263L21.0107 12.7737ZM18.3416 12.95H20.8121V12.55H18.3416V12.95ZM19.4851 10.0158L18.1627 12.6606L18.5205 12.8394L19.8429 10.1947L19.4851 10.0158ZM20.6131 13.2734C20.6644 13.7081 20.8368 14.1057 21.0953 14.4312L21.4085 14.1825C21.1948 13.9133 21.0527 13.5852 21.0104 13.2266L20.6131 13.2734ZM18.3429 13.45H20.8118V13.05H18.3429V13.45ZM19.8438 15.8045L18.5218 13.1606L18.164 13.3394L19.486 15.9834L19.8438 15.8045ZM21.1105 14.1655L19.5235 15.7525L19.8063 16.0353L21.3933 14.4483L21.1105 14.1655ZM6.47573 15.7525L4.88902 14.1658L4.60618 14.4486L6.19289 16.0353L6.47573 15.7525ZM7.47737 13.1606L6.15542 15.8045L6.5132 15.9834L7.83514 13.3394L7.47737 13.1606ZM5.18801 13.45H7.65625V13.05H5.18801V13.45ZM4.9042 14.4316C5.16288 14.1059 5.33536 13.7083 5.38664 13.2734L4.98939 13.2266C4.94708 13.5854 4.80485 13.9136 4.59099 14.1828L4.9042 14.4316ZM7.65756 12.55H5.18771V12.95H7.65756V12.55ZM6.15629 10.1946L7.47867 12.8394L7.83644 12.6606L6.51407 10.0158L6.15629 10.1946ZM4.88788 11.8354L6.4766 10.2466L6.19376 9.96378L4.60503 11.5525L4.88788 11.8354ZM5.3863 12.7263C5.33453 12.2919 5.16176 11.8946 4.90295 11.5694L4.58996 11.8185C4.80393 12.0874 4.9464 12.4152 4.98911 12.7737L5.3863 12.7263ZM10.9127 3.15H5.18801V3.55H10.9127V3.15ZM11.5102 4.28344C11.2961 4.01408 11.1537 3.68564 11.1113 3.32658L10.7141 3.37342C10.7654 3.80859 10.9381 4.20657 11.1971 4.53237L11.5102 4.28344ZM8.19239 7.85202L11.4951 4.54933L11.2122 4.26648L7.90954 7.56918L8.19239 7.85202ZM4.60617 4.54864L7.90954 7.85202L8.19239 7.56918L4.88901 4.2658L4.60617 4.54864ZM4.98939 3.32658C4.94708 3.68536 4.80485 4.01358 4.59098 4.28283L4.9042 4.53162C5.16287 4.20596 5.33536 3.80826 5.38664 3.37342L4.98939 3.32658ZM11.5687 4.90386C11.6241 4.94795 11.6817 4.98953 11.7412 5.02843L11.9601 4.69369C11.911 4.66153 11.8634 4.62716 11.8175 4.59071L11.5687 4.90386ZM8.5318 8.19143L11.8345 4.88871L11.5517 4.60586L8.24895 7.90859L8.5318 8.19143ZM9.77569 9.15248L8.5318 7.90859L8.24895 8.19143L9.49285 9.43532L9.77569 9.15248ZM11.6718 4.77162L9.45538 9.20446L9.81316 9.38335L12.0295 4.9505L11.6718 4.77162ZM12.2113 5.26403C12.4574 5.35373 12.7229 5.40258 12.9994 5.40258V5.00258C12.7703 5.00258 12.5511 4.96215 12.3483 4.88821L12.2113 5.26403ZM10.1709 9.74112L12.4587 5.16556L12.1009 4.98668L9.81316 9.56223L10.1709 9.74112ZM11.8359 11.2127L10.1335 9.51025L9.85062 9.7931L11.5531 11.4956L11.8359 11.2127ZM12.9994 10.7C12.4596 10.7 11.9628 10.8861 11.5702 11.1975L11.8188 11.5108C12.1432 11.2535 12.5531 11.1 12.9994 11.1V10.7ZM14.4289 11.1977C14.0363 10.8862 13.5393 10.7 12.9994 10.7V11.1C13.4459 11.1 13.8559 11.2536 14.1802 11.511L14.4289 11.1977ZM15.8657 9.51039L14.1631 11.2129L14.446 11.4958L16.1485 9.79323L15.8657 9.51039ZM13.5403 5.1655L15.8282 9.74125L16.186 9.56237L13.8981 4.98661L13.5403 5.1655ZM12.9994 5.40258C13.276 5.40258 13.5416 5.35371 13.7877 5.26396L13.6507 4.88816C13.4478 4.96213 13.2286 5.00258 12.9994 5.00258V5.40258ZM16.092 9.96294L14.5028 11.5521L14.7857 11.8349L16.3748 10.2458L16.092 9.96294ZM17.7351 12.6606L16.4123 10.0149L16.0545 10.1938L17.3774 12.8394L17.7351 12.6606ZM15.0858 12.95H17.5562V12.55H15.0858V12.95ZM14.4878 11.8181C14.7019 12.0871 14.8445 12.4151 14.8872 12.7737L15.2844 12.7263C15.2326 12.2917 15.0597 11.8943 14.8007 11.5689L14.4878 11.8181ZM11.1116 12.7737C11.1543 12.4149 11.297 12.0869 11.5112 11.8178L11.1983 11.5687C10.9392 11.894 10.7662 12.2916 10.7144 12.7263L11.1116 12.7737ZM8.4429 12.95H10.913V12.55H8.4429V12.95ZM9.58688 10.0148L8.26402 12.6606L8.62179 12.8394L9.94466 10.1937L9.58688 10.0148ZM11.4962 11.5518L9.90719 9.9628L9.62435 10.2456L11.2134 11.8347L11.4962 11.5518ZM8.44421 13.45H10.9127V13.05H8.44421V13.45ZM9.94081 15.796L8.62309 13.1606L8.26532 13.3394L9.58303 15.9749L9.94081 15.796ZM11.206 14.1586L9.6205 15.744L9.90334 16.0269L11.4888 14.4414L11.206 14.1586ZM10.7141 13.2734C10.7649 13.7047 10.935 14.0995 11.1902 14.4237L11.5045 14.1763C11.2936 13.9083 11.1533 13.5825 11.1113 13.2266L10.7141 13.2734ZM14.8875 13.2266C14.8456 13.5821 14.7056 13.9076 14.4949 14.1754L14.8094 14.4227C15.0641 14.0987 15.234 13.7043 15.2848 13.2734L14.8875 13.2266ZM17.5549 13.05H15.0861V13.45H17.5549V13.05ZM16.4165 15.974L17.7338 13.3394L17.3761 13.1606L16.0588 15.7951L16.4165 15.974ZM14.5107 14.4405L16.0962 16.026L16.3791 15.7431L14.7936 14.1576L14.5107 14.4405ZM14.8019 4.53215C15.0608 4.20639 15.2335 3.80849 15.2848 3.37342L14.8875 3.32658C14.8452 3.68556 14.7028 4.01394 14.4888 4.28327L14.8019 4.53215ZM18.0897 7.56924L14.7867 4.26629L14.5039 4.54913L17.8069 7.85208L18.0897 7.56924ZM21.1106 4.26554L17.8069 7.56924L18.0897 7.85208L21.3934 4.54839L21.1106 4.26554ZM20.6131 3.37342C20.6644 3.80813 20.8368 4.20573 21.0953 4.53134L21.4086 4.28259C21.1948 4.01339 21.0527 3.68526 21.0104 3.32658L20.6131 3.37342ZM15.0861 3.55H20.8118V3.15H15.0861V3.55ZM14.2578 5.02832C14.3173 4.9894 14.3749 4.9478 14.4304 4.90369L14.1815 4.59057C14.1356 4.62704 14.088 4.66143 14.0388 4.6936L14.2578 5.02832ZM16.5438 9.2046L14.3272 4.77152L13.9694 4.9504L16.186 9.38348L16.5438 9.2046ZM17.4674 7.90865L16.2235 9.15262L16.5063 9.43546L17.7503 8.19149L17.4674 7.90865ZM14.1645 4.88855L17.4674 8.19149L17.7503 7.90865L14.4473 4.60571L14.1645 4.88855ZM18.4291 8.19149L21.7326 4.88796L21.4498 4.60512L18.1463 7.90865L18.4291 8.19149ZM19.6739 9.15348L18.4291 7.90865L18.1463 8.19149L19.3911 9.43632L19.6739 9.15348ZM21.5706 4.77149L19.3536 9.20546L19.7114 9.38435L21.9284 4.95038L21.5706 4.77149ZM21.4667 4.90304C21.5224 4.94738 21.5803 4.98919 21.64 5.0283L21.859 4.69358C21.8096 4.66126 21.7618 4.62669 21.7157 4.59003L21.4667 4.90304ZM9.26273 16.1018L7.90246 17.4621L8.18531 17.7449L9.54557 16.3847L9.26273 16.1018ZM7.87134 13.6248L9.22526 16.3327L9.58303 16.1538L8.22912 13.4459L7.87134 13.6248ZM6.87097 16.3411L8.22912 13.6248L7.87134 13.4459L6.5132 16.1623L6.87097 16.3411ZM8.18531 17.4621L6.8335 16.1103L6.55066 16.3931L7.90246 17.7449L8.18531 17.4621ZM18.0974 17.4614L16.7368 16.1009L16.454 16.3837L17.8145 17.7443L18.0974 17.4614ZM19.1657 16.1103L17.8145 17.4614L18.0974 17.7443L19.4485 16.3931L19.1657 16.1103ZM17.77 13.6248L19.1282 16.3411L19.486 16.1622L18.1278 13.4459L17.77 13.6248ZM16.7743 16.3318L18.1278 13.6248L17.77 13.4459L16.4165 16.1529L16.7743 16.3318ZM7.90954 8.248L6.55153 9.60601L6.83437 9.88886L8.19239 8.53084L7.90954 8.248ZM9.54942 9.60503L8.19239 8.248L7.90954 8.53084L9.26658 9.88788L9.54942 9.60503ZM8.22912 12.5515L9.58689 9.8359L9.22911 9.65701L7.87134 12.3726L8.22912 12.5515ZM6.51407 9.83688L7.87134 12.5515L8.22912 12.3726L6.87184 9.65799L6.51407 9.83688ZM19.4477 9.60603L18.0897 8.24806L17.8069 8.5309L19.1648 9.88887L19.4477 9.60603ZM18.1278 12.5515L19.4851 9.83689L19.1274 9.658L17.77 12.3726L18.1278 12.5515ZM16.4123 9.83603L17.77 12.5515L18.1278 12.3726L16.7701 9.65714L16.4123 9.83603ZM17.8069 8.24806L16.4498 9.60517L16.7326 9.88801L18.0897 8.5309L17.8069 8.24806ZM3.10082 4.92602C4.10669 4.92602 4.92211 4.1106 4.92211 3.10473H4.52211C4.52211 3.88968 3.88578 4.52602 3.10082 4.52602V4.92602ZM1.27953 3.10473C1.27953 4.1106 2.09495 4.92602 3.10082 4.92602V4.52602C2.31586 4.52602 1.67953 3.88968 1.67953 3.10473H1.27953ZM3.10082 1.28344C2.09495 1.28344 1.27953 2.09886 1.27953 3.10473H1.67953C1.67953 2.31977 2.31586 1.68344 3.10082 1.68344V1.28344ZM4.92211 3.10473C4.92211 2.09886 4.10669 1.28344 3.10082 1.28344V1.68344C3.88578 1.68344 4.52211 2.31977 4.52211 3.10473H4.92211ZM24.3193 3.10473C24.3193 3.88968 23.683 4.52602 22.898 4.52602V4.92602C23.9039 4.92602 24.7193 4.1106 24.7193 3.10473H24.3193ZM22.898 1.68344C23.683 1.68344 24.3193 2.31977 24.3193 3.10473H24.7193C24.7193 2.09886 23.9039 1.28344 22.898 1.28344V1.68344ZM21.4767 3.10473C21.4767 2.31977 22.1131 1.68344 22.898 1.68344V1.28344C21.8921 1.28344 21.0767 2.09886 21.0767 3.10473H21.4767ZM22.898 4.52602C22.1131 4.52602 21.4767 3.88968 21.4767 3.10473H21.0767C21.0767 4.1106 21.8921 4.92602 22.898 4.92602V4.52602ZM12.9989 4.92602C14.0048 4.92602 14.8202 4.1106 14.8202 3.10473H14.4202C14.4202 3.88968 13.7839 4.52602 12.9989 4.52602V4.92602ZM11.1777 3.10473C11.1777 4.1106 11.9931 4.92602 12.9989 4.92602V4.52602C12.214 4.52602 11.5777 3.88968 11.5777 3.10473H11.1777ZM12.9989 1.28344C11.9931 1.28344 11.1777 2.09886 11.1777 3.10473H11.5777C11.5777 2.31977 12.214 1.68344 12.9989 1.68344V1.28344ZM14.8202 3.10473C14.8202 2.09886 14.0048 1.28344 12.9989 1.28344V1.68344C13.7839 1.68344 14.4202 2.31977 14.4202 3.10473H14.8202ZM4.52211 13.0047C4.52211 13.7897 3.88578 14.426 3.10082 14.426V14.826C4.10669 14.826 4.92211 14.0106 4.92211 13.0047H4.52211ZM3.10082 11.5834C3.88578 11.5834 4.52211 12.2198 4.52211 13.0047H4.92211C4.92211 11.9989 4.10669 11.1834 3.10082 11.1834V11.5834ZM1.67953 13.0047C1.67953 12.2198 2.31586 11.5834 3.10082 11.5834V11.1834C2.09495 11.1834 1.27953 11.9989 1.27953 13.0047H1.67953ZM3.10082 14.426C2.31586 14.426 1.67953 13.7897 1.67953 13.0047H1.27953C1.27953 14.0106 2.09495 14.826 3.10082 14.826V14.426ZM22.898 14.826C23.9039 14.826 24.7193 14.0106 24.7193 13.0047H24.3193C24.3193 13.7897 23.683 14.426 22.898 14.426V14.826ZM21.0767 13.0047C21.0767 14.0106 21.8921 14.826 22.898 14.826V14.426C22.1131 14.426 21.4767 13.7897 21.4767 13.0047H21.0767ZM22.898 11.1834C21.8921 11.1834 21.0767 11.9989 21.0767 13.0047H21.4767C21.4767 12.2198 22.1131 11.5834 22.898 11.5834V11.1834ZM24.7193 13.0047C24.7193 11.9989 23.9039 11.1834 22.898 11.1834V11.5834C23.683 11.5834 24.3193 12.2198 24.3193 13.0047H24.7193ZM14.4202 13.0047C14.4202 13.7897 13.7839 14.426 12.9989 14.426V14.826C14.0048 14.826 14.8202 14.0106 14.8202 13.0047H14.4202ZM12.9989 11.5834C13.7839 11.5834 14.4202 12.2198 14.4202 13.0047H14.8202C14.8202 11.9989 14.0048 11.1834 12.9989 11.1834V11.5834ZM11.5777 13.0047C11.5777 12.2198 12.214 11.5834 12.9989 11.5834V11.1834C11.9931 11.1834 11.1777 11.9989 11.1777 13.0047H11.5777ZM12.9989 14.426C12.214 14.426 11.5777 13.7897 11.5777 13.0047H11.1777C11.1777 14.0106 11.9931 14.826 12.9989 14.826V14.426ZM3.10082 24.726C4.10669 24.726 4.92211 23.9106 4.92211 22.9047H4.52211C4.52211 23.6897 3.88578 24.326 3.10082 24.326V24.726ZM1.27953 22.9047C1.27953 23.9106 2.09495 24.726 3.10082 24.726V24.326C2.31586 24.326 1.67953 23.6897 1.67953 22.9047H1.27953ZM3.10082 21.0834C2.09495 21.0834 1.27953 21.8989 1.27953 22.9047H1.67953C1.67953 22.1198 2.31586 21.4834 3.10082 21.4834V21.0834ZM4.92211 22.9047C4.92211 21.8989 4.10669 21.0834 3.10082 21.0834V21.4834C3.88578 21.4834 4.52211 22.1198 4.52211 22.9047H4.92211ZM24.3193 22.9047C24.3193 23.6897 23.683 24.326 22.898 24.326V24.726C23.9039 24.726 24.7193 23.9106 24.7193 22.9047H24.3193ZM22.898 21.4834C23.683 21.4834 24.3193 22.1198 24.3193 22.9047H24.7193C24.7193 21.8989 23.9039 21.0834 22.898 21.0834V21.4834ZM21.4767 22.9047C21.4767 22.1198 22.1131 21.4834 22.898 21.4834V21.0834C21.8921 21.0834 21.0767 21.8989 21.0767 22.9047H21.4767ZM22.898 24.326C22.1131 24.326 21.4767 23.6897 21.4767 22.9047H21.0767C21.0767 23.9106 21.8921 24.726 22.898 24.726V24.326ZM12.9989 24.726C14.0048 24.726 14.8202 23.9106 14.8202 22.9047H14.4202C14.4202 23.6897 13.7839 24.326 12.9989 24.326V24.726ZM11.1777 22.9047C11.1777 23.9106 11.9931 24.726 12.9989 24.726V24.326C12.214 24.326 11.5777 23.6897 11.5777 22.9047H11.1777ZM12.9989 21.0834C11.9931 21.0834 11.1777 21.8989 11.1777 22.9047H11.5777C11.5777 22.1198 12.214 21.4834 12.9989 21.4834V21.0834ZM14.8202 22.9047C14.8202 21.8989 14.0048 21.0834 12.9989 21.0834V21.4834C13.7839 21.4834 14.4202 22.1198 14.4202 22.9047H14.8202Z" fill="currentColor"/>
</svg>
