<svg viewBox="0 0 26 26" fill="currentColor" xmlns="http://www.w3.org/2000/svg">
<mask id="mask0_53530_24130" style="mask-type:alpha" maskUnits="userSpaceOnUse" x="1" y="1" width="24" height="25">
<path d="M23.5001 4.50002C21.9001 4.50002 21.5001 2.83335 21.5001 2.00002H14.5001C14.3334 1.66668 15.125 4.50002 13.0001 4.50002C10.8752 4.50002 11.6667 1.66668 11.5 2.00002C9 1.33335 4.1 0.40002 4.5 2.00002C4.9 3.60002 3.33333 4.33335 2.5 4.50002C2.33333 6.66669 2.2 11.1 3 11.5C4 12 4.5 12 4.5 13C4.5 13.8 3.49999 14.3334 2.99999 14.5C1.83333 16.6667 0.0999918 21.1 2.49999 21.5C4.89999 21.9 4.49999 23.3334 3.99999 24H11.5001C11.1667 23.1667 11.0001 21.5 13.0001 21.5C15.0001 21.5 14.8334 23.1667 14.5001 24C17.3334 25.1667 22.8001 26.9 22.0001 24.5C21.2001 22.1 22.6667 21.5 23.5001 21.5V14.5C22.8334 14.6667 21.5001 14.6 21.5001 13C21.5001 11.4 22.8334 11.3334 23.5001 11.5C24.1667 9.16669 25.1001 4.50002 23.5001 4.50002Z" fill="#D9D9D9"/>
</mask>
<g mask="url(#mask0_53530_24130)">
<path fill-rule="evenodd" clip-rule="evenodd" d="M2.5117 13.1766C2.41407 13.079 2.41407 12.9207 2.5117 12.8231L5.82158 9.51319L2.46534 2.80061C2.41051 2.69094 2.4433 2.55769 2.54277 2.486C2.64224 2.4143 2.77903 2.42533 2.86573 2.51203L7.84423 7.49053L12.8228 2.51201C12.8762 2.45857 12.9478 2.43438 13.0177 2.43944C13.0823 2.44402 13.1419 2.47346 13.1847 2.52041L18.1554 7.49109L23.1344 2.51203C23.2211 2.42533 23.3579 2.4143 23.4574 2.486C23.5569 2.55769 23.5897 2.69094 23.5348 2.80061L20.1782 9.51385L23.4874 12.8231C23.585 12.9207 23.585 13.079 23.4874 13.1766L20.1781 16.4859L23.5348 23.1993C23.5897 23.3089 23.5569 23.4422 23.4574 23.5139C23.3579 23.5856 23.2211 23.5746 23.1344 23.4879L18.1553 18.5087L13.1867 23.4773C13.1399 23.5299 13.0723 23.5611 12.9999 23.5611C12.972 23.5611 12.9448 23.5564 12.9192 23.5477C12.884 23.5358 12.8508 23.5158 12.8228 23.4877L7.84434 18.5093L2.86573 23.4879C2.77903 23.5746 2.64224 23.5856 2.54277 23.5139C2.4433 23.4422 2.41051 23.309 2.46534 23.1993L5.82165 16.4866L2.5117 13.1766ZM3.29203 12.7498L6.05728 9.98459L7.43988 12.7498H3.29203ZM3.29203 13.2498L6.05735 16.0152L7.43999 13.2498H3.29203ZM8.24889 13.2498L9.63146 16.015L12.3966 13.2498H8.24889ZM13.6035 13.2498L16.3686 16.0149L17.7511 13.2498H13.6035ZM17.751 12.7498H13.6037L16.3686 9.98501L17.751 12.7498ZM18.56 13.2498L19.9424 16.0145L22.707 13.2498H18.56ZM22.707 12.7498H18.5601L19.9425 9.98526L22.707 12.7498ZM12.3964 12.7498H8.249L9.63146 9.98487L12.3964 12.7498ZM3.6015 22.045L6.19433 16.8592L7.49078 18.1557L3.6015 22.045ZM6.43003 16.3878L7.84434 17.8021L9.25878 16.3877L7.84444 13.559L6.43003 16.3878ZM12.0876 22.0454L8.19789 18.1557L9.49448 16.8591L12.0876 22.0454ZM17.8017 18.1551L13.9131 22.0438L16.5056 16.859L17.8017 18.1551ZM22.3986 22.0449L18.5088 18.1551L19.8054 16.8586L22.3986 22.0449ZM18.1553 17.8016L19.5697 16.3872L18.1556 13.559L16.7413 16.3876L18.1553 17.8016ZM22.3986 3.95495L19.8055 9.14118L18.5089 7.84464L22.3986 3.95495ZM19.5698 9.61258L18.1554 8.19819L16.7413 9.61233L18.1556 12.4409L19.5698 9.61258ZM13.9129 3.95569L17.8018 7.84464L16.5056 9.14093L13.9129 3.95569ZM8.19778 7.84409L12.0878 3.95407L9.49448 9.14079L8.19778 7.84409ZM9.25878 9.6122L7.84423 8.19764L6.42996 9.61191L7.84444 12.4409L9.25878 9.6122ZM6.19426 9.14051L7.49068 7.84409L3.6015 3.95491L6.19426 9.14051ZM9.86716 16.4864L12.9999 22.7521L14.5664 19.6192L16.1329 16.4863L13.0001 13.3535L9.86716 16.4864ZM16.1329 9.51361L12.9999 3.24782L9.86716 9.51347L13.0001 12.6464L16.1329 9.51361Z" />
<path fill-rule="evenodd" clip-rule="evenodd" d="M2.68883 2.43882H23.3111V2.93882H2.68883V2.43882Z" />
<path fill-rule="evenodd" clip-rule="evenodd" d="M2.68883 23.0611H23.3111V23.5611H2.68883V23.0611Z" />
</g>
<path fill-rule="evenodd" clip-rule="evenodd" d="M2.68884 1.5C2.03226 1.5 1.5 2.03226 1.5 2.68884C1.5 3.34542 2.03226 3.87769 2.68884 3.87769C3.34542 3.87769 3.87769 3.34542 3.87769 2.68884C3.87769 2.03226 3.34542 1.5 2.68884 1.5ZM0.5 2.68884C0.5 1.47998 1.47998 0.5 2.68884 0.5C3.89771 0.5 4.87769 1.47998 4.87769 2.68884C4.87769 3.89771 3.89771 4.87769 2.68884 4.87769C1.47998 4.87769 0.5 3.89771 0.5 2.68884Z" />
<path fill-rule="evenodd" clip-rule="evenodd" d="M23.3114 1.5C22.6548 1.5 22.1226 2.03226 22.1226 2.68884C22.1226 3.34542 22.6548 3.87769 23.3114 3.87769C23.968 3.87769 24.5002 3.34542 24.5002 2.68884C24.5002 2.03226 23.968 1.5 23.3114 1.5ZM21.1226 2.68884C21.1226 1.47998 22.1025 0.5 23.3114 0.5C24.5203 0.5 25.5002 1.47998 25.5002 2.68884C25.5002 3.89771 24.5203 4.87769 23.3114 4.87769C22.1025 4.87769 21.1226 3.89771 21.1226 2.68884Z" />
<path fill-rule="evenodd" clip-rule="evenodd" d="M12.9999 1.5C12.3433 1.5 11.811 2.03226 11.811 2.68884C11.811 3.34542 12.3433 3.87769 12.9999 3.87769C13.6565 3.87769 14.1887 3.34542 14.1887 2.68884C14.1887 2.03226 13.6565 1.5 12.9999 1.5ZM10.811 2.68884C10.811 1.47998 11.791 0.5 12.9999 0.5C14.2087 0.5 15.1887 1.47998 15.1887 2.68884C15.1887 3.89771 14.2087 4.87769 12.9999 4.87769C11.791 4.87769 10.811 3.89771 10.811 2.68884Z" />
<path fill-rule="evenodd" clip-rule="evenodd" d="M2.68884 11.811C2.03226 11.811 1.5 12.3433 1.5 12.9999C1.5 13.6565 2.03226 14.1887 2.68884 14.1887C3.34542 14.1887 3.87769 13.6565 3.87769 12.9999C3.87769 12.3433 3.34542 11.811 2.68884 11.811ZM0.5 12.9999C0.5 11.791 1.47998 10.811 2.68884 10.811C3.89771 10.811 4.87769 11.791 4.87769 12.9999C4.87769 14.2087 3.89771 15.1887 2.68884 15.1887C1.47998 15.1887 0.5 14.2087 0.5 12.9999Z" />
<path fill-rule="evenodd" clip-rule="evenodd" d="M23.3114 11.811C22.6548 11.811 22.1226 12.3433 22.1226 12.9999C22.1226 13.6565 22.6548 14.1887 23.3114 14.1887C23.968 14.1887 24.5002 13.6565 24.5002 12.9999C24.5002 12.3433 23.968 11.811 23.3114 11.811ZM21.1226 12.9999C21.1226 11.791 22.1025 10.811 23.3114 10.811C24.5203 10.811 25.5002 11.791 25.5002 12.9999C25.5002 14.2087 24.5203 15.1887 23.3114 15.1887C22.1025 15.1887 21.1226 14.2087 21.1226 12.9999Z" />
<path fill-rule="evenodd" clip-rule="evenodd" d="M12.9999 11.811C12.3433 11.811 11.811 12.3433 11.811 12.9999C11.811 13.6565 12.3433 14.1887 12.9999 14.1887C13.6565 14.1887 14.1887 13.6565 14.1887 12.9999C14.1887 12.3433 13.6565 11.811 12.9999 11.811ZM10.811 12.9999C10.811 11.791 11.791 10.811 12.9999 10.811C14.2087 10.811 15.1887 11.791 15.1887 12.9999C15.1887 14.2087 14.2087 15.1887 12.9999 15.1887C11.791 15.1887 10.811 14.2087 10.811 12.9999Z" />
<path fill-rule="evenodd" clip-rule="evenodd" d="M2.68884 22.1223C2.03226 22.1223 1.5 22.6545 1.5 23.3111C1.5 23.9677 2.03226 24.4999 2.68884 24.4999C3.34542 24.4999 3.87769 23.9677 3.87769 23.3111C3.87769 22.6545 3.34542 22.1223 2.68884 22.1223ZM0.5 23.3111C0.5 22.1022 1.47998 21.1223 2.68884 21.1223C3.89771 21.1223 4.87769 22.1022 4.87769 23.3111C4.87769 24.52 3.89771 25.4999 2.68884 25.4999C1.47998 25.4999 0.5 24.52 0.5 23.3111Z" />
<path fill-rule="evenodd" clip-rule="evenodd" d="M23.3114 22.1223C22.6548 22.1223 22.1226 22.6545 22.1226 23.3111C22.1226 23.9677 22.6548 24.4999 23.3114 24.4999C23.968 24.4999 24.5002 23.9677 24.5002 23.3111C24.5002 22.6545 23.968 22.1223 23.3114 22.1223ZM21.1226 23.3111C21.1226 22.1022 22.1025 21.1223 23.3114 21.1223C24.5203 21.1223 25.5002 22.1022 25.5002 23.3111C25.5002 24.52 24.5203 25.4999 23.3114 25.4999C22.1025 25.4999 21.1226 24.52 21.1226 23.3111Z" />
<path fill-rule="evenodd" clip-rule="evenodd" d="M12.9999 22.1223C12.3433 22.1223 11.811 22.6545 11.811 23.3111C11.811 23.9677 12.3433 24.4999 12.9999 24.4999C13.6565 24.4999 14.1887 23.9677 14.1887 23.3111C14.1887 22.6545 13.6565 22.1223 12.9999 22.1223ZM10.811 23.3111C10.811 22.1022 11.791 21.1223 12.9999 21.1223C14.2087 21.1223 15.1887 22.1022 15.1887 23.3111C15.1887 24.52 14.2087 25.4999 12.9999 25.4999C11.791 25.4999 10.811 24.52 10.811 23.3111Z" />
</svg>
