<svg width="14" height="17" viewBox="0 0 14 17" fill="none" xmlns="http://www.w3.org/2000/svg">
<path d="M5.65833 10.8152L0.825412 10.1952C0.431801 10.1469 0.174578 9.93361 0.0537449 9.55542C-0.0670885 9.17722 0.0158283 8.85181 0.302495 8.57917L9.0125 0.228334C9.08861 0.152223 9.18027 0.0951387 9.28749 0.0570831C9.39472 0.0190276 9.54159 0 9.72812 0C10.0324 0 10.2642 0.129652 10.4233 0.388958C10.5825 0.648402 10.5876 0.914723 10.4387 1.18792L7.78833 6.225L12.6262 6.83521C13.0233 6.8834 13.2814 7.0966 13.4004 7.47479C13.5196 7.85299 13.4359 8.1784 13.1494 8.45104L4.45916 16.7771C4.38305 16.8532 4.29138 16.9103 4.18416 16.9483C4.07694 16.9864 3.93006 17.0054 3.74354 17.0054C3.43923 17.0054 3.20666 16.8766 3.04583 16.619C2.88499 16.3612 2.87902 16.0957 3.02791 15.8225L5.65833 10.8152Z" fill="currentColor"/>
</svg>
