<svg width="22" height="20" viewBox="0 0 22 20" fill="none" xmlns="http://www.w3.org/2000/svg">
<path d="M20.2701 9.72081L20.3761 9.50177L20.2691 9.28326C18.5355 5.74263 14.9818 3.50312 11 3.50312C10.371 3.50312 9.76397 3.57547 9.1763 3.68231L8.31666 2.82267C9.17764 2.61386 10.0748 2.50312 11 2.50312C15.7173 2.50312 19.7581 5.39428 21.4609 9.50356C20.8581 10.9643 19.9573 12.2626 18.8342 13.3402L18.1352 12.6412C18.9997 11.8177 19.7302 10.8374 20.2701 9.72081ZM14.99 9.49111V9.49312C14.99 9.49409 14.99 9.49505 14.99 9.49602L13.6969 8.20294C13.403 7.58899 12.9041 7.09016 12.2902 6.79621L10.9971 5.50313C10.9981 5.50313 10.999 5.50313 11 5.50313C13.2057 5.50313 14.9989 7.29066 14.99 9.49111ZM2.42115 1.16158L19.443 18.193L18.74 18.896L15.6736 15.8296L15.4414 15.5974L15.1361 15.7182C13.8538 16.2254 12.4561 16.5031 11 16.5031C6.28261 16.5031 2.24178 13.6118 0.538996 9.50243C1.28272 7.69553 2.48758 6.1331 3.9988 4.94637L4.44218 4.5982L4.04355 4.19957L1.71586 1.87188L2.42115 1.16158ZM8.86355 9.01957L8.01 8.16602V9.3667C8.00977 9.3687 8.00941 9.37175 8.00886 9.37611L8.00849 9.37907C8.00579 9.40049 8 9.44649 8 9.50313C8 11.1593 9.34386 12.5031 11 12.5031C11.1046 12.5031 11.1991 12.479 11.2344 12.4699C11.237 12.4693 11.2393 12.4687 11.2413 12.4682L12.098 12.254L11.4736 11.6296L8.86355 9.01957ZM5.46355 5.61957L5.15487 5.31089L4.80737 5.57511C3.54084 6.53809 2.4681 7.77734 1.73092 9.28329L1.6233 9.50315L1.73094 9.72299C3.46448 13.2636 7.01821 15.5031 11 15.5031C11.9994 15.5031 12.9638 15.3558 13.8816 15.1055L14.7128 14.8788L14.1036 14.2696L13.1236 13.2896L12.8848 13.0508L12.5741 13.1831C12.0944 13.3874 11.5609 13.5031 11 13.5031C8.79614 13.5031 7 11.707 7 9.50313C7 8.94272 7.11551 8.4081 7.32129 7.91603L7.45066 7.60667L7.21355 7.36957L5.46355 5.61957Z" fill="#5F6368" stroke="#FB6E4E"/>
</svg>
