<svg width="200" height="28" viewBox="0 0 200 28" fill="none" xmlns="http://www.w3.org/2000/svg">
<path d="M22.8804 0.148438H22.7972V0.21721V24.2602L12.5823 0.189704L12.5685 0.148438H12.513H6.71948H0.219081H0.14978V0.21721V27.7813V27.8501H0.219081H6.71948H6.78878V27.7813V3.69711L17.0453 27.8088L17.0591 27.8501H17.1146H22.8804H29.3669H29.4362V27.7813V0.21721V0.148438H29.3669H22.8804Z" fill="white"/>
<path fill-rule="evenodd" clip-rule="evenodd" d="M22.6475 0H29.5871V28H16.9513L16.9051 27.8623L6.93962 4.43474V28H0V0H12.6773L12.7236 0.137821L22.6475 23.5224V0ZM22.7978 24.2609L12.5828 0.190429L12.569 0.149163H0.150308V27.8508H6.78931V3.69784L17.0458 27.8096L17.0597 27.8508H29.4368V0.149163H22.7978V24.2609Z" fill="white"/>
<path d="M104.78 0.148438H92.3893H92.32L92.3061 0.203459L85.9582 24.3702L79.5964 0.203459L79.5826 0.148438H79.5271H67.1084H67.0253V0.21721V27.7813V27.8501H67.1084H73.595H73.6643V27.7813V3.88968L79.9429 27.7951L79.9568 27.8501H80.0261H91.8626H91.9181L91.9319 27.7951L98.2106 3.88968V27.7813V27.8501H98.2799H104.78H104.85V27.7813V0.21721V0.148438H104.78Z" fill="white"/>
<path fill-rule="evenodd" clip-rule="evenodd" d="M92.203 0H105V28H98.0607V5.05409L92.0781 27.832L92.0358 28H79.8398L79.7979 27.8334L73.815 5.05409V28H66.8754V0H79.7003L79.7422 0.166482L85.9585 23.7802L92.1607 0.168017L92.203 0ZM85.9586 24.3709L79.5968 0.204184L79.583 0.149163H67.0257V27.8508H73.6647V3.8904L79.9433 27.7958L79.9572 27.8508H91.9185L91.9323 27.7958L98.211 3.8904V27.8508H104.85V0.149163H92.3204L92.3066 0.204184L85.9586 24.3709Z" fill="white"/>
<path d="M56.3394 0.148438H56.2979L56.284 0.175948L48.3976 13.7792L40.4696 0.175948L40.4557 0.148438H40.4142H32.9158H32.7772L32.8465 0.258476L45.0573 21.2479V27.7813V27.8501H45.1266H51.627H51.6963V27.7813V21.2479L63.9071 0.258476L63.9764 0.148438H63.8378H56.3394Z" fill="white"/>
<path fill-rule="evenodd" clip-rule="evenodd" d="M56.2053 0H64.2479L64.0363 0.336041L51.8469 21.2886V28H44.9073V21.2886L32.718 0.336042L32.5063 0H40.5489L40.6023 0.105916L48.3976 13.4814L56.1518 0.106068L56.2053 0ZM56.2843 0.176673L48.3979 13.7799L40.4699 0.176673L40.456 0.149163H32.7775L32.8468 0.259202L45.0576 21.2487V27.8508H51.6966V21.2487L63.9074 0.259202L63.9767 0.149163H56.2982L56.2843 0.176673Z" fill="white"/>
<path d="M200 0V28H196.719C196.234 28 195.824 27.9231 195.489 27.7694C195.166 27.6028 194.842 27.321 194.519 26.9238L181.712 10.2237C181.762 10.7234 181.793 11.2102 181.806 11.6843C181.83 12.1455 181.843 12.5811 181.843 12.9911V28H176.288V0H179.606C179.879 0 180.109 0.0128115 180.296 0.0384346C180.482 0.0640577 180.65 0.115305 180.799 0.192176C180.948 0.256234 181.091 0.352322 181.228 0.480439C181.364 0.608556 181.52 0.781514 181.694 0.999312L194.612 17.8147C194.55 17.2766 194.507 16.7577 194.482 16.2581C194.457 15.7456 194.445 15.2652 194.445 14.8167V0H200Z" fill="#FB6E4E"/>
<path d="M159.184 13.7406C160.824 13.7406 162.005 13.337 162.726 12.5299C163.447 11.7227 163.807 10.5953 163.807 9.14756C163.807 8.50698 163.714 7.92404 163.527 7.39876C163.341 6.87348 163.055 6.42507 162.67 6.05353C162.297 5.66918 161.819 5.37451 161.235 5.16952C160.663 4.96454 159.979 4.86204 159.184 4.86204H155.903V13.7406H159.184ZM159.184 0C161.098 0 162.738 0.237016 164.105 0.711049C165.485 1.17227 166.616 1.81286 167.498 2.63281C168.393 3.45276 169.052 4.42004 169.474 5.53466C169.897 6.64928 170.108 7.85358 170.108 9.14756C170.108 10.544 169.891 11.8252 169.456 12.9911C169.021 14.1569 168.356 15.1563 167.461 15.989C166.566 16.8218 165.429 17.4752 164.049 17.9492C162.682 18.4104 161.061 18.641 159.184 18.641H155.903V28H149.602V0H159.184Z" fill="#FB6E4E"/>
<path d="M144.478 0L133.591 28H127.887L117 0H122.071C122.617 0 123.059 0.134522 123.394 0.403567C123.73 0.659803 123.984 0.992908 124.158 1.40288L129.415 16.3926C129.664 17.046 129.906 17.7634 130.142 18.545C130.379 19.3137 130.602 20.1208 130.814 20.9664C130.988 20.1208 131.18 19.3137 131.391 18.545C131.615 17.7634 131.851 17.046 132.1 16.3926L137.32 1.40288C137.456 1.04415 137.699 0.723861 138.047 0.442004C138.407 0.147335 138.848 0 139.37 0H144.478Z" fill="#FB6E4E"/>
</svg>
