<?xml version="1.0" encoding="UTF-8"?>
<!-- Generated by Pixelmator Pro 3.5.8 -->
<svg width="80" height="80" viewBox="0 0 80 80" xmlns="http://www.w3.org/2000/svg">
    <g id="Log-in">
        <g id="Frame-1464">
            <g id="Frame-1466">
                <path id="Vector" fill="none" stroke="#fb6e4e" stroke-width="2" stroke-opacity="0.4" d="M 9.91932 74.208397 C -0.104027 66.450401 -1.96416 52.021702 5.79156 42.001301 C 7.30129 40.050701 9.06364 38.409302 10.997 37.0877 C 11.6746 45.031399 15.0495 52.787498 21.131001 58.868999 C 27.2104 64.948303 34.963799 68.329697 42.905399 69.0131 C 42.657501 69.374001 42.3979 69.730003 42.126499 70.080704 C 34.3685 80.103996 19.939699 81.964203 9.91932 74.208397 Z M 39.2229 36.291901 C 31.420401 30.252899 21.1633 29.576401 12.8718 33.678501 C 12.974 25.347603 16.202299 17.046501 22.546101 10.687302 C 35.430599 -2.228607 56.393902 -2.229851 69.311897 10.688103 C 82.229401 23.605598 82.229401 44.5373 69.311897 57.4547 C 62.953499 63.813202 54.653301 67.041702 46.322899 67.140503 C 51.5187 56.702099 48.7925 43.698799 39.2229 36.291901 Z"/>
            </g>
        </g>
    </g>
</svg>
