<svg width="24" height="24" viewBox="0 0 24 24" fill="none" xmlns="http://www.w3.org/2000/svg">
<g id="Element">
<path id="Subtract" fill-rule="evenodd" clip-rule="evenodd" d="M24 12C24 18.6274 18.6274 24 12 24C5.37258 24 0 18.6274 0 12C0 5.37258 5.37258 0 12 0C18.6274 0 24 5.37258 24 12ZM10.687 4.69833C10.2011 4.6934 9.80325 5.0833 9.79832 5.5692C9.79339 6.0551 10.1833 6.453 10.6692 6.45792C13.0775 6.48234 14.8983 8.41631 14.8983 10.6781C14.8983 11.164 15.2922 11.558 15.7781 11.558C16.264 11.558 16.658 11.164 16.658 10.6781C16.658 7.46369 14.0724 4.73266 10.687 4.69833ZM6.45792 13.3308C6.48234 10.9225 8.4163 9.10172 10.6781 9.10172C11.164 9.10172 11.558 8.7078 11.558 8.22188C11.558 7.73595 11.164 7.34203 10.6781 7.34203C7.46368 7.34203 4.73265 9.92755 4.69832 13.313C4.69339 13.7989 5.0833 14.1967 5.5692 14.2017C6.0551 14.2066 6.45299 13.8167 6.45792 13.3308ZM19.3017 10.687C19.3066 10.2011 18.9167 9.80325 18.4308 9.79833C17.9449 9.7934 17.547 10.1833 17.5421 10.6692C17.5176 13.0775 15.5837 14.8983 13.3219 14.8983C12.8359 14.8983 12.442 15.2922 12.442 15.7781C12.442 16.264 12.8359 16.658 13.3219 16.658C16.5363 16.658 19.2673 14.0725 19.3017 10.687ZM9.10171 13.3219C9.10171 12.836 8.70779 12.442 8.22187 12.442C7.73594 12.442 7.34202 12.836 7.34202 13.3219C7.34202 16.528 9.92133 19.3017 13.3219 19.3017C13.8078 19.3017 14.2017 18.9078 14.2017 18.4219C14.2017 17.936 13.8078 17.542 13.3219 17.542C10.9287 17.542 9.10171 15.592 9.10171 13.3219Z" fill="#E6E1E5"/>
</g>
</svg>
